<svg width="669" height="594" viewBox="0 0 669 594" fill="none" xmlns="http://www.w3.org/2000/svg">
<path d="M595.87 0H80.72C68.7022 0 58.96 9.74228 58.96 21.76V404.71C58.96 416.728 68.7022 426.47 80.72 426.47H595.87C607.888 426.47 617.63 416.728 617.63 404.71V21.76C617.63 9.74228 607.888 0 595.87 0Z" fill="#D7D7D8"/>
<path d="M80.72 5C71.48 5 63.96 12.52 63.96 21.76V404.7C63.96 413.94 71.48 421.46 80.72 421.46H595.87C605.11 421.46 612.63 413.94 612.63 404.7V21.76C612.63 12.52 605.11 5 595.87 5H80.72Z" fill="white"/>
<path d="M340.28 2.54999H336.29V424.39H340.28V2.54999Z" fill="#D7D7D8"/>
<path d="M314.57 71.23C317.69 71.23 320.22 68.7004 320.22 65.58C320.22 62.4596 317.69 59.93 314.57 59.93C311.45 59.93 308.92 62.4596 308.92 65.58C308.92 68.7004 311.45 71.23 314.57 71.23Z" fill="#D7D7D8"/>
<path d="M362.01 71.23C365.13 71.23 367.66 68.7004 367.66 65.58C367.66 62.4596 365.13 59.93 362.01 59.93C358.889 59.93 356.36 62.4596 356.36 65.58C356.36 68.7004 358.889 71.23 362.01 71.23Z" fill="#D7D7D8"/>
<path d="M314.57 145.06C317.69 145.06 320.22 142.53 320.22 139.41C320.22 136.29 317.69 133.76 314.57 133.76C311.45 133.76 308.92 136.29 308.92 139.41C308.92 142.53 311.45 145.06 314.57 145.06Z" fill="#D7D7D8"/>
<path d="M362.01 145.06C365.13 145.06 367.66 142.53 367.66 139.41C367.66 136.29 365.13 133.76 362.01 133.76C358.889 133.76 356.36 136.29 356.36 139.41C356.36 142.53 358.889 145.06 362.01 145.06Z" fill="#D7D7D8"/>
<path d="M314.57 218.88C317.69 218.88 320.22 216.35 320.22 213.23C320.22 210.11 317.69 207.58 314.57 207.58C311.45 207.58 308.92 210.11 308.92 213.23C308.92 216.35 311.45 218.88 314.57 218.88Z" fill="#D7D7D8"/>
<path d="M362.01 218.88C365.13 218.88 367.66 216.35 367.66 213.23C367.66 210.11 365.13 207.58 362.01 207.58C358.889 207.58 356.36 210.11 356.36 213.23C356.36 216.35 358.889 218.88 362.01 218.88Z" fill="#D7D7D8"/>
<path d="M314.57 292.71C317.69 292.71 320.22 290.18 320.22 287.06C320.22 283.94 317.69 281.41 314.57 281.41C311.45 281.41 308.92 283.94 308.92 287.06C308.92 290.18 311.45 292.71 314.57 292.71Z" fill="#D7D7D8"/>
<path d="M362.01 292.71C365.13 292.71 367.66 290.18 367.66 287.06C367.66 283.94 365.13 281.41 362.01 281.41C358.889 281.41 356.36 283.94 356.36 287.06C356.36 290.18 358.889 292.71 362.01 292.71Z" fill="#D7D7D8"/>
<path d="M314.57 366.53C317.69 366.53 320.22 364 320.22 360.88C320.22 357.76 317.69 355.23 314.57 355.23C311.45 355.23 308.92 357.76 308.92 360.88C308.92 364 311.45 366.53 314.57 366.53Z" fill="#D7D7D8"/>
<path d="M362.01 366.53C365.13 366.53 367.66 364 367.66 360.88C367.66 357.76 365.13 355.23 362.01 355.23C358.889 355.23 356.36 357.76 356.36 360.88C356.36 364 358.889 366.53 362.01 366.53Z" fill="#D7D7D8"/>
<path d="M315.09 62.97L314.04 61.27C314.3 61.11 340.14 45.5 362.58 61.3L361.43 62.94C340.07 47.9 315.33 62.82 315.09 62.97Z" fill="#D7D7D8"/>
<path d="M315.09 69.9L314.04 68.2C314.3 68.04 340.14 52.43 362.58 68.23L361.43 69.87C340.07 54.83 315.33 69.75 315.09 69.9Z" fill="#D7D7D8"/>
<path d="M315.09 137.12L314.04 135.42C314.3 135.26 340.14 119.65 362.58 135.45L361.43 137.09C340.07 122.05 315.33 136.97 315.09 137.12Z" fill="#D7D7D8"/>
<path d="M315.09 144.06L314.04 142.36C314.3 142.2 340.14 126.59 362.58 142.39L361.43 144.03C340.07 128.99 315.33 143.91 315.09 144.06Z" fill="#D7D7D8"/>
<path d="M315.09 211.27L314.04 209.57C314.3 209.41 340.14 193.8 362.58 209.6L361.43 211.24C340.07 196.2 315.33 211.12 315.09 211.27Z" fill="#D7D7D8"/>
<path d="M315.09 218.21L314.04 216.51C314.3 216.35 340.13 200.74 362.58 216.54L361.43 218.18C340.07 203.14 315.33 218.06 315.09 218.21Z" fill="#D7D7D8"/>
<path d="M315.09 285.42L314.04 283.72C314.3 283.56 340.14 267.95 362.58 283.75L361.43 285.39C340.07 270.36 315.33 285.27 315.09 285.42Z" fill="#D7D7D8"/>
<path d="M315.09 292.36L314.04 290.66C314.3 290.5 340.13 274.89 362.58 290.69L361.43 292.33C340.07 277.29 315.33 292.21 315.09 292.36Z" fill="#D7D7D8"/>
<path d="M315.09 359.57L314.04 357.87C314.3 357.71 340.14 342.1 362.58 357.9L361.43 359.53C340.07 344.49 315.33 359.41 315.09 359.56V359.57Z" fill="#D7D7D8"/>
<path d="M315.09 366.51L314.04 364.81C314.3 364.65 340.14 349.04 362.58 364.84L361.43 366.47C340.07 351.43 315.33 366.35 315.09 366.5V366.51Z" fill="#D7D7D8"/>
<path d="M110.83 75.9C131.38 75.11 151.95 74.77 172.52 74.89C193.09 75.01 213.32 75.58 233.69 76.61C245.29 77.19 256.87 77.92 268.45 78.8C270.38 78.95 270.37 75.94 268.45 75.8C247.94 74.25 227.4 73.16 206.84 72.52C186.28 71.88 166.04 71.72 145.64 71.99C134.03 72.15 122.42 72.45 110.82 72.9C108.9 72.97 108.89 75.97 110.82 75.9H110.83Z" fill="#F9A826"/>
<path d="M110.83 109.84C131.38 109.05 151.95 108.71 172.52 108.83C193.09 108.95 213.32 109.52 233.69 110.55C245.29 111.13 256.87 111.86 268.45 112.74C270.38 112.89 270.37 109.88 268.45 109.74C247.94 108.19 227.4 107.1 206.84 106.46C186.28 105.82 166.04 105.66 145.64 105.93C134.03 106.09 122.42 106.39 110.82 106.84C108.9 106.91 108.89 109.91 110.82 109.84H110.83Z" fill="#2F2E43"/>
<path d="M110.83 143.78C127.51 143.13 144.2 142.39 160.9 142.1C175.18 141.85 189.46 142.08 203.72 142.77C213.89 143.26 224.05 143.95 234.21 144.71C236.14 144.86 236.13 141.85 234.21 141.71C217.57 140.45 200.91 139.42 184.22 139.1C169.94 138.83 155.65 139.14 141.38 139.62C131.2 139.97 121.02 140.38 110.83 140.78C108.91 140.85 108.9 143.85 110.83 143.78Z" fill="#2F2E43"/>
<path d="M110.83 177.72C128.49 177.04 146.16 176.32 163.83 176.06C179.65 175.82 195.48 176.03 211.29 176.75C221.82 177.23 232.34 177.9 242.86 178.7C244.79 178.85 244.78 175.84 242.86 175.7C225.24 174.37 207.6 173.38 189.94 173.08C174.11 172.8 158.28 173.08 142.46 173.58C131.92 173.91 121.38 174.32 110.84 174.73C108.92 174.8 108.91 177.8 110.84 177.73L110.83 177.72Z" fill="#2F2E43"/>
<path d="M110.83 211.65C126.89 211.03 142.93 210.05 158.98 209.3C172.24 208.68 185.5 208.47 198.77 208.91C208.71 209.24 218.64 209.86 228.55 210.61C230.48 210.76 230.47 207.75 228.55 207.61C212.55 206.4 196.53 205.55 180.48 205.67C167.19 205.77 153.93 206.54 140.67 207.25C130.73 207.78 120.78 208.26 110.83 208.65C108.91 208.72 108.9 211.73 110.83 211.65Z" fill="#2F2E43"/>
<path d="M110.83 245.59C131.38 244.8 151.95 244.46 172.52 244.58C193.09 244.7 213.32 245.27 233.69 246.3C245.29 246.88 256.87 247.61 268.45 248.49C270.38 248.64 270.37 245.63 268.45 245.49C247.94 243.94 227.4 242.85 206.84 242.21C186.28 241.57 166.04 241.41 145.64 241.68C134.03 241.84 122.42 242.14 110.82 242.59C108.9 242.66 108.89 245.66 110.82 245.59H110.83Z" fill="#2F2E43"/>
</svg>
